<?xml version="1.0" encoding="UTF-8"?>
<svg xmlns="http://www.w3.org/2000/svg" viewBox="0 0 401 271">
  <path fill="#19d819" d="M224.42,106.52c-4.21-3.17-9.42-4.76-15.62-4.76s-11.72,1.66-15.98,4.97c-4.26,3.31-7.47,7.84-9.62,13.57-2.16,5.73-3.23,12.19-3.23,19.39s1.09,13.85,3.27,19.67c2.18,5.82,5.41,10.43,9.69,13.81,4.28,3.39,9.58,5.08,15.87,5.08s11.28-1.62,15.52-4.86,7.46-7.75,9.66-13.53c2.2-5.78,3.3-12.5,3.3-20.17s-1.09-14.2-3.27-19.89c-2.18-5.68-5.38-10.11-9.59-13.28Z"/>
  <path fill="#19d819" d="M355.19,0H45.81C20.51,0,0,18.8,0,41.99V229.01c0,23.19,20.51,41.99,45.81,41.99H355.19c25.3,0,45.81-18.8,45.81-41.99V41.99c0-23.19-20.51-41.99-45.81-41.99ZM132.41,175.98c-4.24,6.39-10.37,11.43-18.4,15.13-8.03,3.69-17.72,5.54-29.08,5.54s-20.31-1.73-28.27-5.18c-7.95-3.46-14.18-8.37-18.68-14.74-4.5-6.37-6.98-13.93-7.46-22.69h22.02c.43,5.26,2.14,9.62,5.15,13.1,3.01,3.48,6.86,6.06,11.58,7.74,4.71,1.68,9.88,2.52,15.52,2.52,6.2,0,11.73-.98,16.58-2.95,4.85-1.96,8.68-4.71,11.47-8.24,2.79-3.53,4.19-7.66,4.19-12.39,0-4.31-1.22-7.84-3.66-10.58-2.44-2.75-5.73-5.02-9.87-6.82-4.14-1.8-8.82-3.38-14.03-4.76l-17.19-4.69c-11.65-3.17-20.87-7.84-27.66-13.99-6.79-6.15-10.19-14.3-10.19-24.43,0-8.38,2.27-15.7,6.82-21.95s10.7-11.11,18.47-14.6c7.77-3.48,16.52-5.22,26.28-5.22s18.55,1.73,26.1,5.19c7.55,3.46,13.51,8.2,17.86,14.24,4.36,6.04,6.63,12.96,6.82,20.77h-21.16c-.76-6.72-3.88-11.94-9.38-15.66-5.49-3.72-12.41-5.58-20.74-5.58-5.97,0-11.13,.94-15.48,2.81-4.36,1.87-7.73,4.43-10.12,7.67-2.39,3.24-3.59,6.92-3.59,11.04,0,3.46,.82,6.44,2.45,8.95,1.63,2.51,3.79,4.61,6.46,6.29,2.67,1.68,5.55,3.08,8.63,4.19,3.08,1.11,6.04,2.02,8.88,2.73l14.2,3.69c4.64,1.14,9.4,2.68,14.28,4.62,4.88,1.94,9.4,4.5,13.57,7.67,4.17,3.17,7.54,7.1,10.12,11.79,2.58,4.69,3.87,10.3,3.87,16.83,0,8.24-2.12,15.55-6.36,21.95Zm125.75,59.16h-21.24v-57.88h-1.28c-1.28,2.32-3.11,4.97-5.5,7.96-2.39,2.98-5.67,5.59-9.84,7.81-4.17,2.22-9.56,3.34-16.19,3.34-8.81,0-16.65-2.26-23.54-6.78-6.89-4.52-12.29-10.98-16.19-19.39-3.91-8.4-5.86-18.5-5.86-30.29s1.98-21.88,5.93-30.26c3.95-8.38,9.39-14.8,16.3-19.25,6.91-4.45,14.75-6.68,23.51-6.68,6.77,0,12.23,1.12,16.37,3.37,4.14,2.25,7.36,4.86,9.66,7.85,2.3,2.98,4.08,5.61,5.36,7.88h1.78v-17.68h20.74V235.15Zm93.96-40.91l-24.57-40.77-24.5,40.77h-23.29l33.95-54.55-33.52-54.55h23.3l24.08,42.47,24.29-42.47h23.22l-34.02,54.55,34.3,54.55h-23.22Z"/>
</svg>